<svg id="Layer_1" data-name="Layer 1" xmlns="http://www.w3.org/2000/svg" viewBox="0 0 250 249.99"><defs><style>.cls-1{fill:#0052d4;}.cls-2{fill:#fff;}</style></defs><title>Snypt Logo</title><path class="cls-1" d="M259.74,103.47A125,125,0,0,0,151.67,291.25l-12,57.29,57.29-12a125,125,0,1,0,62.77-233.08Z" transform="translate(-134.74 -103.47)"/><path class="cls-2" d="M212.05,267.17a5.79,5.79,0,0,1-4.11-1.71l-32.89-32.89a5.81,5.81,0,0,1,0-8.21l32.89-32.89a5.81,5.81,0,1,1,8.21,8.21l-28.79,28.79,28.79,28.79a5.81,5.81,0,0,1-4.1,9.91Z" transform="translate(-134.74 -103.47)"/><path class="cls-2" d="M307.44,267.17a5.81,5.81,0,0,1-4.1-9.91l28.79-28.79-28.79-28.79a5.81,5.81,0,1,1,8.21-8.21l32.89,32.9a5.81,5.81,0,0,1,0,8.2l-32.89,32.9A5.82,5.82,0,0,1,307.44,267.17Z" transform="translate(-134.74 -103.47)"/><path class="cls-2" d="M235.07,267.17a5.8,5.8,0,0,1-4.64-9.29l49.35-65.78a5.8,5.8,0,1,1,9.28,7l-49.34,65.79A5.8,5.8,0,0,1,235.07,267.17Z" transform="translate(-134.74 -103.47)"/></svg>